<svg width="79" height="49" viewBox="0 0 79 49" fill="none" xmlns="http://www.w3.org/2000/svg">
<g opacity="0.6">
<path d="M6.5 41.5V31.0444L28.0856 7.5H72.9634V41.5H27.8657H6.5Z" stroke="white"/>
<path d="M68.0395 20.2808C67.13 22.2075 65.7102 23.4907 63.4327 23.4907C60.2169 23.4907 58.0469 21.2022 58.0469 17.8824C58.0469 14.3947 60.4318 11.8823 63.8068 11.8823C66.0843 11.8823 67.8246 13.0815 67.8246 14.6725C67.8246 16.7931 64.7163 16.7092 64.7163 14.9523C64.7163 14.1708 65.3859 13.863 65.3859 13.5852C65.3859 13.2234 64.7163 12.8877 63.9392 12.8877C62.0378 12.8877 60.5373 14.7844 60.5373 17.6325C60.5373 20.3668 61.9572 22.0696 64.0198 22.0696C65.1979 22.0696 66.2436 21.456 67.0475 19.921C67.2106 19.5833 68.2275 19.8911 68.0395 20.2808Z" fill="white"/>
<path d="M68.0395 34.3302C67.13 36.257 65.7102 37.5401 63.4327 37.5401C60.2169 37.5401 58.0469 35.2516 58.0469 31.9318C58.0469 28.4441 60.4318 25.9318 63.8068 25.9318C66.0843 25.9318 67.8246 27.131 67.8246 28.7219C67.8246 30.8425 64.7163 30.7586 64.7163 29.0017C64.7163 28.2203 65.3859 27.9125 65.3859 27.6346C65.3859 27.2729 64.7163 26.9371 63.9392 26.9371C62.0378 26.9371 60.5373 28.8339 60.5373 31.682C60.5373 34.4162 61.9572 36.1191 64.0198 36.1191C65.1979 36.1191 66.2436 35.5055 67.0475 33.9705C67.2106 33.6327 68.2275 33.9405 68.0395 34.3302Z" fill="white"/>
</g>
</svg>
